<svg width="531" height="386" viewBox="0 0 531 386" fill="none" xmlns="http://www.w3.org/2000/svg">
<g clip-path="url(#clip0)">
<path d="M499.623 2.55485H94.6289C94.6175 1.87361 94.339 1.2241 93.8533 0.746239C93.3677 0.268374 92.7138 0.000384636 92.0324 0H76.0815C75.4002 0.000290246 74.7462 0.268242 74.2605 0.746128C73.7748 1.22401 73.4963 1.87358 73.485 2.55485H69.5788C69.5674 1.87361 69.2889 1.2241 68.8032 0.746239C68.3175 0.268374 67.6636 0.000384636 66.9823 0H51.0314C50.3501 0.000384636 49.6961 0.268374 49.2105 0.746239C48.7248 1.2241 48.4463 1.87361 48.4349 2.55485H34.222C25.9738 2.56411 18.0661 5.84476 12.2337 11.6771C6.4013 17.5093 3.12053 25.417 3.11113 33.6652V33.9714C3.06236 33.9686 3.01562 33.9568 2.96583 33.9568H2.60108C2.2595 33.9568 1.92126 34.0241 1.60568 34.1548C1.29009 34.2855 1.00335 34.4771 0.761811 34.7186C0.520277 34.9601 0.328682 35.2469 0.197969 35.5625C0.0672559 35.878 -1.72475e-05 36.2163 -7.62836e-06 36.5579V66.9825C-1.72475e-05 67.3241 0.0672559 67.6624 0.197969 67.9779C0.328682 68.2935 0.520277 68.5803 0.761811 68.8218C1.00335 69.0634 1.29009 69.2549 1.60568 69.3857C1.92126 69.5164 2.2595 69.5836 2.60108 69.5836H2.96583C3.01563 69.5836 3.06236 69.5717 3.11113 69.569V354.89C3.12053 363.138 6.4013 371.046 12.2337 376.878C18.0661 382.71 25.9738 385.991 34.222 386H499.623C507.872 385.991 515.779 382.71 521.611 376.878C527.444 371.045 530.724 363.138 530.734 354.89V33.6652C530.724 25.4171 527.444 17.5095 521.611 11.6772C515.779 5.84491 507.872 2.56422 499.623 2.55485ZM521.37 354.89C521.363 360.655 519.07 366.183 514.993 370.259C510.916 374.336 505.389 376.63 499.623 376.636H34.222C28.4564 376.63 22.9288 374.336 18.8519 370.26C14.7749 366.183 12.4816 360.655 12.475 354.89V33.6652C12.4816 27.8996 14.7749 22.3721 18.8519 18.2952C22.9288 14.2184 28.4564 11.9252 34.222 11.9187H499.623C505.389 11.9253 510.916 14.2186 514.993 18.2954C519.07 22.3722 521.363 27.8997 521.37 33.6652V354.89Z" fill="#CCCCCC"/>
<path d="M499.623 381.838H34.2218C27.0771 381.83 20.2272 378.988 15.1751 373.936C10.123 368.884 7.28118 362.034 7.27311 354.89V33.6652C7.28117 26.5204 10.123 19.6706 15.1751 14.6185C20.2272 9.56639 27.0771 6.72459 34.2218 6.71655H499.623C506.768 6.72456 513.618 9.56634 518.67 14.6184C523.722 19.6705 526.564 26.5204 526.572 33.6651V354.89C526.564 362.034 523.722 368.884 518.67 373.936C513.618 378.988 506.768 381.83 499.623 381.838Z" fill="#E6E6E6"/>
<path d="M499.766 360.128H34.0795C32.5069 360.126 30.9992 359.501 29.8873 358.389C28.7753 357.277 28.1499 355.769 28.1481 354.197V34.3576C28.1499 32.785 28.7754 31.2774 29.8874 30.1655C30.9993 29.0536 32.5069 28.4281 34.0795 28.4264H499.766C501.338 28.4281 502.846 29.0535 503.958 30.1655C505.07 31.2774 505.695 32.785 505.697 34.3576V354.197C505.695 355.769 505.07 357.277 503.958 358.389C502.846 359.501 501.338 360.127 499.766 360.128Z" fill="white"/>
<path d="M17.8133 195.948C19.0431 195.948 20.04 194.951 20.04 193.721C20.04 192.491 19.0431 191.494 17.8133 191.494C16.5836 191.494 15.5867 192.491 15.5867 193.721C15.5867 194.951 16.5836 195.948 17.8133 195.948Z" fill="white"/>
<path d="M203.225 70.7483H104.296C96.5356 70.7571 89.0955 73.8438 83.6081 79.3312C78.1206 84.8187 75.0339 92.2588 75.0251 100.019V108.961C74.8221 108.905 74.6088 108.897 74.4022 108.938C74.1956 108.979 74.0012 109.067 73.8345 109.196C73.6678 109.324 73.5333 109.49 73.4416 109.679C73.3498 109.869 73.3034 110.077 73.306 110.288V117.164C73.3034 117.375 73.3498 117.583 73.4416 117.773C73.5333 117.962 73.6678 118.128 73.8345 118.257C74.0012 118.385 74.1956 118.473 74.4022 118.514C74.6088 118.555 74.8221 118.547 75.0251 118.491V128.903C74.8221 128.847 74.6088 128.839 74.4022 128.88C74.1956 128.92 74.0012 129.009 73.8345 129.137C73.6677 129.266 73.5332 129.432 73.4415 129.621C73.3498 129.811 73.3034 130.019 73.306 130.23V147.421C73.3034 147.631 73.3498 147.84 73.4415 148.029C73.5332 148.219 73.6677 148.384 73.8345 148.513C74.0012 148.642 74.1956 148.73 74.4022 148.771C74.6088 148.811 74.8221 148.803 75.0251 148.747V155.033C74.8221 154.978 74.6088 154.97 74.4022 155.01C74.1956 155.051 74.0012 155.139 73.8345 155.268C73.6677 155.396 73.5332 155.562 73.4415 155.752C73.3498 155.941 73.3034 156.149 73.306 156.36V173.551C73.3034 173.762 73.3498 173.97 73.4415 174.16C73.5332 174.349 73.6677 174.515 73.8345 174.644C74.0012 174.772 74.1956 174.86 74.4022 174.901C74.6088 174.942 74.8221 174.934 75.0251 174.878V356.419C75.0339 364.179 78.1206 371.619 83.6081 377.107C89.0955 382.594 96.5356 385.681 104.296 385.69H203.225C210.985 385.681 218.425 382.594 223.913 377.107C229.4 371.619 232.487 364.179 232.496 356.419V100.019C232.487 92.2588 229.4 84.8187 223.913 79.3312C218.425 73.8438 210.985 70.7571 203.225 70.7483ZM226.307 356.419C226.3 362.538 223.866 368.405 219.539 372.733C215.212 377.06 209.344 379.494 203.225 379.501H104.296C98.1764 379.494 92.3094 377.06 87.9822 372.733C83.655 368.405 81.2209 362.538 81.2139 356.419V100.019C81.2209 93.8996 83.655 88.0326 87.9822 83.7053C92.3094 79.3781 98.1764 76.944 104.296 76.9371H203.225C209.344 76.944 215.212 79.3781 219.539 83.7053C223.866 88.0326 226.3 93.8996 226.307 100.019V356.419Z" fill="#CCCCCC"/>
<path d="M203.225 382.939H104.296C97.2649 382.931 90.524 380.134 85.5522 375.163C80.5804 370.191 77.7837 363.45 77.7757 356.419V100.019C77.7837 92.988 80.5804 86.2471 85.5522 81.2753C90.5239 76.3036 97.2649 73.5069 104.296 73.4989H203.225C210.256 73.5069 216.997 76.3036 221.969 81.2753C226.941 86.2471 229.737 92.988 229.745 100.019V356.419C229.737 363.45 226.941 370.191 221.969 375.163C216.997 380.134 210.256 382.931 203.225 382.939Z" fill="#E6E6E6"/>
<path d="M205.67 378.813H101.851C97.1092 378.808 92.5627 376.922 89.2095 373.568C85.8562 370.215 83.9699 365.669 83.9645 360.926V95.5116C83.9699 90.7694 85.8562 86.2229 89.2094 82.8696C92.5627 79.5164 97.1091 77.6301 101.851 77.6248H115.39C116.174 77.6257 116.926 77.9374 117.48 78.4917C118.034 79.0459 118.346 79.7973 118.347 80.5811C118.349 82.8966 119.27 85.1166 120.908 86.7539C122.545 88.3912 124.765 89.3121 127.08 89.3147H179.065C181.381 89.3122 183.601 88.3912 185.238 86.7539C186.875 85.1166 187.796 82.8966 187.799 80.5811C187.8 79.7973 188.112 79.0459 188.666 78.4917C189.22 77.9374 189.971 77.6257 190.755 77.6248H205.67C210.412 77.6301 214.958 79.5164 218.312 82.8696C221.665 86.2229 223.551 90.7693 223.556 95.5116V360.926C223.551 365.669 221.665 370.215 218.312 373.568C214.958 376.922 210.412 378.808 205.67 378.813Z" fill="white"/>
<path d="M158.23 83.6417H145.853C145.488 83.6417 145.138 83.4968 144.88 83.2389C144.622 82.981 144.477 82.6311 144.477 82.2664C144.477 81.9016 144.622 81.5518 144.88 81.2939C145.138 81.036 145.488 80.8911 145.853 80.8911H158.23C158.594 80.892 158.943 81.0372 159.201 81.295C159.458 81.5529 159.602 81.9022 159.602 82.2664C159.602 82.6306 159.458 82.9799 159.201 83.2378C158.943 83.4956 158.594 83.6409 158.23 83.6417Z" fill="white"/>
<path d="M166.826 83.2979C167.206 83.2979 167.513 82.99 167.513 82.6102C167.513 82.2305 167.206 81.9226 166.826 81.9226C166.446 81.9226 166.138 82.2305 166.138 82.6102C166.138 82.99 166.446 83.2979 166.826 83.2979Z" fill="white"/>
<path d="M167.523 148.273L167.667 151.472C184.022 150.739 202.96 152.164 223.117 155.528V152.284C202.93 148.946 183.948 147.537 167.523 148.273Z" fill="#CCCCCC"/>
<path d="M147.186 210.934C147.059 212.158 146.956 213.39 146.876 214.629C146.707 217.066 146.623 219.523 146.623 221.998C146.635 245.046 154.087 267.475 167.869 285.949C181.651 304.422 201.028 317.954 223.117 324.532V119.445C202.831 125.476 184.79 137.387 171.274 153.672C157.758 169.957 149.376 189.884 147.186 210.934Z" fill="white"/>
<path d="M93.8087 148.933C94.9732 148.933 95.9173 147.989 95.9173 146.825C95.9173 145.66 94.9732 144.716 93.8087 144.716C92.6442 144.716 91.7001 145.66 91.7001 146.825C91.7001 147.989 92.6442 148.933 93.8087 148.933Z" fill="#CCCCCC"/>
<path d="M89.3146 233.517C91.6151 233.517 93.48 231.653 93.48 229.352C93.48 227.052 91.6151 225.187 89.3146 225.187C87.0141 225.187 85.1492 227.052 85.1492 229.352C85.1492 231.653 87.0141 233.517 89.3146 233.517Z" fill="#CCCCCC"/>
<path d="M167.756 123.278C169.423 123.278 170.773 121.927 170.773 120.261C170.773 118.595 169.423 117.244 167.756 117.244C166.09 117.244 164.74 118.595 164.74 120.261C164.74 121.927 166.09 123.278 167.756 123.278Z" fill="#CCCCCC"/>
<path d="M99.1199 290.59C100.449 290.59 101.527 289.513 101.527 288.184C101.527 286.854 100.449 285.777 99.1199 285.777C97.7906 285.777 96.7129 286.854 96.7129 288.184C96.7129 289.513 97.7906 290.59 99.1199 290.59Z" fill="#CCCCCC"/>
<path d="M147.737 324.291C149.177 324.291 150.344 323.124 150.344 321.685C150.344 320.245 149.177 319.078 147.737 319.078C146.298 319.078 145.131 320.245 145.131 321.685C145.131 323.124 146.298 324.291 147.737 324.291Z" fill="#CCCCCC"/>
<path d="M223.512 59.2324H218.368V54.0884H215.608V59.2324H210.462V61.9937H215.608V67.1377H218.368V61.9937H223.512V59.2324Z" fill="#CCCCCC"/>
<path opacity="0.1" d="M186.141 213.01C191.105 213.01 195.129 208.986 195.129 204.022C195.129 199.058 191.105 195.034 186.141 195.034C181.177 195.034 177.153 199.058 177.153 204.022C177.153 208.986 181.177 213.01 186.141 213.01Z" fill="black"/>
<path opacity="0.1" d="M190.635 276.335C195.599 276.335 199.623 272.311 199.623 267.347C199.623 262.383 195.599 258.359 190.635 258.359C185.671 258.359 181.647 262.383 181.647 267.347C181.647 272.311 185.671 276.335 190.635 276.335Z" fill="black"/>
<path d="M150.983 210.998C139.953 203.592 131.738 196.285 126.566 189.281C121.406 182.294 119.566 175.982 121.097 170.52C122.628 165.058 127.48 160.622 135.52 157.335C143.579 154.039 154.395 152.067 167.666 151.472L167.523 148.273C139.104 149.546 121.521 157.14 118.013 169.656C114.506 182.171 125.58 197.798 149.197 213.656C168.457 226.589 194.252 238.532 223.117 247.991V244.62C194.934 235.307 169.785 223.624 150.983 210.998Z" fill="#CCCCCC"/>
<path opacity="0.1" d="M150.981 213.56C149.678 212.684 148.413 211.808 147.186 210.934C147.059 212.158 146.956 213.39 146.876 214.63C147.636 215.16 148.41 215.69 149.198 216.218C168.457 229.151 194.252 241.094 223.117 250.553V247.182C194.935 237.868 169.787 226.186 150.981 213.56Z" fill="black"/>
<path d="M270.256 161.98C257.661 158.45 245.176 155.574 233.062 153.361V156.616C244.896 158.797 257.087 161.615 269.392 165.064C308.567 176.044 344.015 192.046 366.648 208.966L368.566 206.401C345.629 189.253 309.797 173.063 270.256 161.98Z" fill="#CCCCCC"/>
<path d="M364.299 221.998C364.289 205.891 360.644 189.993 353.635 175.49C346.626 160.988 336.434 148.254 323.819 138.239C311.204 128.223 296.491 121.184 280.777 117.646C265.063 114.108 248.753 114.162 233.062 117.805V326.184C256.653 331.676 281.409 329.002 303.283 318.599C325.157 308.197 342.855 290.681 353.484 268.916C354.036 267.791 354.567 266.656 355.076 265.509C361.176 251.816 364.319 236.989 364.299 221.998L364.299 221.998Z" fill="white"/>
<path d="M260.169 95.7483C260.846 95.7483 261.394 95.1996 261.394 94.5227C261.394 93.8457 260.846 93.297 260.169 93.297C259.492 93.297 258.943 93.8457 258.943 94.5227C258.943 95.1996 259.492 95.7483 260.169 95.7483Z" fill="#F2F2F2"/>
<path d="M343.104 104.653C344.638 104.653 345.881 103.41 345.881 101.876C345.881 100.343 344.638 99.1003 343.104 99.1003C341.571 99.1003 340.328 100.343 340.328 101.876C340.328 103.41 341.571 104.653 343.104 104.653Z" fill="#CCCCCC"/>
<path d="M441.565 221.603C444.055 221.603 446.073 219.585 446.073 217.096C446.073 214.606 444.055 212.588 441.565 212.588C439.076 212.588 437.058 214.606 437.058 217.096C437.058 219.585 439.076 221.603 441.565 221.603Z" fill="#CCCCCC"/>
<path d="M406.32 147.04C407.388 147.04 408.254 146.174 408.254 145.106C408.254 144.038 407.388 143.172 406.32 143.172C405.252 143.172 404.386 144.038 404.386 145.106C404.386 146.174 405.252 147.04 406.32 147.04Z" fill="#CCCCCC"/>
<path d="M399.551 209.89C400.619 209.89 401.485 209.024 401.485 207.956C401.485 206.888 400.619 206.022 399.551 206.022C398.483 206.022 397.618 206.888 397.618 207.956C397.618 209.024 398.483 209.89 399.551 209.89Z" fill="#CCCCCC"/>
<path d="M346.588 337.561H343.357V334.332H341.625V337.561H338.395V339.294H341.625V342.524H343.357V339.294H346.588V337.561Z" fill="#CCCCCC"/>
<path d="M421.136 321.029H418.722V318.615H417.425V321.029H415.011V322.325H417.425V324.739H418.722V322.325H421.136V321.029Z" fill="#CCCCCC"/>
<path opacity="0.1" d="M258.943 147.233C263.907 147.233 267.931 143.209 267.931 138.245C267.931 133.281 263.907 129.257 258.943 129.257C253.979 129.257 249.955 133.281 249.955 138.245C249.955 143.209 253.979 147.233 258.943 147.233Z" fill="black"/>
<path opacity="0.1" d="M258.943 226.901C263.907 226.901 267.931 222.877 267.931 217.913C267.931 212.949 263.907 208.925 258.943 208.925C253.979 208.925 249.955 212.949 249.955 217.913C249.955 222.877 253.979 226.901 258.943 226.901Z" fill="black"/>
<path opacity="0.1" d="M307.152 178.692C312.116 178.692 316.14 174.668 316.14 169.704C316.14 164.74 312.116 160.716 307.152 160.716C302.188 160.716 298.164 164.74 298.164 169.704C298.164 174.668 302.188 178.692 307.152 178.692Z" fill="black"/>
<path opacity="0.1" d="M336.976 239.566C341.94 239.566 345.964 235.542 345.964 230.578C345.964 225.614 341.94 221.59 336.976 221.59C332.012 221.59 327.988 225.614 327.988 230.578C327.988 235.542 332.012 239.566 336.976 239.566Z" fill="black"/>
<path d="M388.756 226.5C384.535 220.024 377.743 213.261 368.566 206.401L366.648 208.966C384.481 222.297 392.788 235.041 390.039 244.848C388.508 250.31 383.656 254.746 375.616 258.033C367.556 261.329 356.741 263.301 343.47 263.896C340.65 264.022 337.756 264.085 334.79 264.085C308.822 264.085 277.512 259.277 245.5 250.304C241.303 249.128 237.157 247.897 233.062 246.613V249.966C236.876 251.151 240.734 252.291 244.636 253.388C276.927 262.439 308.54 267.288 334.805 267.287C337.812 267.287 340.753 267.223 343.613 267.095C372.032 265.822 389.615 258.228 393.123 245.712C394.75 239.907 393.281 233.443 388.756 226.5Z" fill="#CCCCCC"/>
<path opacity="0.1" d="M343.47 266.457C340.651 266.583 337.757 266.646 334.789 266.646C308.824 266.646 277.511 261.839 245.5 252.866C241.303 251.69 237.157 250.459 233.062 249.174V252.528C236.875 253.713 240.733 254.853 244.635 255.95C276.928 265 308.539 269.848 334.805 269.848C337.812 269.848 340.755 269.784 343.615 269.656C347.069 269.502 350.359 269.256 353.484 268.916C354.036 267.791 354.567 266.655 355.076 265.509C351.444 265.955 347.576 266.271 343.47 266.457Z" fill="black"/>
<path d="M307.116 143.926C313.589 143.926 318.836 138.679 318.836 132.207C318.836 125.735 313.589 120.488 307.116 120.488C300.644 120.488 295.397 125.735 295.397 132.207C295.397 138.679 300.644 143.926 307.116 143.926Z" fill="white"/>
<path d="M307.152 114.958C302.709 114.958 298.449 116.723 295.308 119.864C292.166 123.005 290.401 127.266 290.401 131.708C290.401 140.96 307.152 171.338 307.152 171.338C307.152 171.338 323.903 140.96 323.903 131.708C323.903 127.266 322.138 123.005 318.996 119.864C315.855 116.723 311.595 114.958 307.152 114.958ZM307.152 139.879C305.617 139.879 304.116 139.424 302.839 138.571C301.563 137.718 300.568 136.506 299.98 135.088C299.393 133.669 299.239 132.108 299.539 130.603C299.838 129.097 300.578 127.714 301.663 126.628C302.749 125.542 304.132 124.803 305.638 124.504C307.143 124.204 308.704 124.358 310.123 124.945C311.541 125.533 312.753 126.528 313.606 127.804C314.459 129.081 314.914 130.582 314.914 132.117C314.914 134.176 314.097 136.15 312.641 137.606C311.185 139.062 309.211 139.879 307.152 139.879Z" fill="url(#paint0_linear)"/>
<path d="M258.775 186.408C265.247 186.408 270.494 181.161 270.494 174.689C270.494 168.216 265.247 162.97 258.775 162.97C252.303 162.97 247.056 168.216 247.056 174.689C247.056 181.161 252.303 186.408 258.775 186.408Z" fill="white"/>
<path d="M258.81 157.44C254.368 157.44 250.107 159.205 246.966 162.346C243.825 165.487 242.06 169.748 242.06 174.191C242.06 183.442 258.81 213.82 258.81 213.82C258.81 213.82 275.561 183.442 275.561 174.191C275.561 169.748 273.796 165.487 270.655 162.346C267.514 159.205 263.253 157.44 258.81 157.44ZM258.81 182.362C257.275 182.362 255.774 181.906 254.498 181.053C253.221 180.2 252.226 178.988 251.639 177.57C251.051 176.151 250.898 174.59 251.197 173.085C251.497 171.579 252.236 170.196 253.322 169.11C254.407 168.025 255.79 167.285 257.296 166.986C258.802 166.686 260.363 166.84 261.781 167.427C263.199 168.015 264.412 169.01 265.265 170.286C266.118 171.563 266.573 173.064 266.573 174.599C266.573 176.658 265.755 178.632 264.299 180.088C262.844 181.544 260.869 182.362 258.81 182.362Z" fill="url(#paint1_linear)"/>
<path d="M258.775 110.966C265.247 110.966 270.494 105.719 270.494 99.2466C270.494 92.7743 265.247 87.5275 258.775 87.5275C252.303 87.5275 247.056 92.7743 247.056 99.2466C247.056 105.719 252.303 110.966 258.775 110.966Z" fill="white"/>
<path d="M258.81 81.9978C254.368 81.9978 250.107 83.7626 246.966 86.9039C243.825 90.0453 242.06 94.3058 242.06 98.7484C242.06 107.999 258.81 138.378 258.81 138.378C258.81 138.378 275.561 107.999 275.561 98.7484C275.561 94.3058 273.796 90.0453 270.655 86.9039C267.514 83.7626 263.253 81.9978 258.81 81.9978ZM258.81 106.919C257.275 106.919 255.774 106.464 254.498 105.611C253.221 104.758 252.226 103.546 251.639 102.127C251.051 100.709 250.898 99.1483 251.197 97.6425C251.497 96.1368 252.236 94.7536 253.322 93.668C254.407 92.5824 255.79 91.8431 257.296 91.5436C258.802 91.2441 260.363 91.3978 261.781 91.9853C263.199 92.5728 264.412 93.5678 265.265 94.8443C266.118 96.1209 266.573 97.6217 266.573 99.1569C266.573 100.176 266.372 101.186 265.982 102.127C265.592 103.069 265.02 103.925 264.299 104.646C263.578 105.367 262.723 105.938 261.781 106.329C260.839 106.719 259.83 106.919 258.81 106.919Z" fill="#CCCCCC"/>
<path d="M337.147 201.789C343.619 201.789 348.866 196.543 348.866 190.07C348.866 183.598 343.619 178.351 337.147 178.351C330.674 178.351 325.428 183.598 325.428 190.07C325.428 196.543 330.674 201.789 337.147 201.789Z" fill="white"/>
<path d="M337.182 172.821C332.74 172.821 328.479 174.586 325.338 177.727C322.197 180.869 320.432 185.129 320.432 189.572C320.432 198.823 337.182 229.201 337.182 229.201C337.182 229.201 353.933 198.823 353.933 189.572C353.933 185.129 352.168 180.869 349.027 177.727C345.885 174.586 341.625 172.821 337.182 172.821ZM337.182 197.743C335.647 197.743 334.146 197.288 332.87 196.435C331.593 195.582 330.598 194.369 330.011 192.951C329.423 191.533 329.269 189.972 329.569 188.466C329.869 186.96 330.608 185.577 331.693 184.492C332.779 183.406 334.162 182.667 335.668 182.367C337.174 182.068 338.734 182.221 340.153 182.809C341.571 183.396 342.784 184.391 343.637 185.668C344.49 186.944 344.945 188.445 344.945 189.98C344.945 192.039 344.127 194.014 342.671 195.469C341.215 196.925 339.241 197.743 337.182 197.743Z" fill="#CCCCCC"/>
<path d="M186.262 175.421C192.735 175.421 197.982 170.174 197.982 163.702C197.982 157.23 192.735 151.983 186.262 151.983C179.79 151.983 174.543 157.23 174.543 163.702C174.543 170.174 179.79 175.421 186.262 175.421Z" fill="white"/>
<path d="M186.298 146.453C181.856 146.453 177.595 148.218 174.454 151.359C171.312 154.501 169.548 158.761 169.548 163.204C169.548 172.455 186.298 202.833 186.298 202.833C186.298 202.833 203.049 172.455 203.049 163.204C203.049 158.761 201.284 154.501 198.142 151.359C195.001 148.218 190.741 146.453 186.298 146.453ZM186.298 171.375C184.763 171.375 183.262 170.919 181.985 170.066C180.709 169.214 179.714 168.001 179.126 166.583C178.539 165.164 178.385 163.604 178.685 162.098C178.984 160.592 179.724 159.209 180.809 158.123C181.895 157.038 183.278 156.298 184.784 155.999C186.289 155.699 187.85 155.853 189.269 156.441C190.687 157.028 191.899 158.023 192.752 159.3C193.605 160.576 194.061 162.077 194.061 163.612C194.061 165.671 193.243 167.645 191.787 169.101C190.331 170.557 188.357 171.375 186.298 171.375Z" fill="#CCCCCC"/>
<path d="M190.657 239.144C197.13 239.144 202.376 233.897 202.376 227.425C202.376 220.953 197.13 215.706 190.657 215.706C184.185 215.706 178.938 220.953 178.938 227.425C178.938 233.897 184.185 239.144 190.657 239.144Z" fill="white"/>
<path d="M190.693 210.176C186.25 210.176 181.99 211.941 178.848 215.082C175.707 218.224 173.942 222.484 173.942 226.927C173.942 236.178 190.693 266.556 190.693 266.556C190.693 266.556 207.443 236.178 207.443 226.927C207.443 222.484 205.679 218.224 202.537 215.082C199.396 211.941 195.135 210.176 190.693 210.176ZM190.693 235.098C189.158 235.098 187.657 234.642 186.38 233.79C185.104 232.937 184.109 231.724 183.521 230.306C182.934 228.887 182.78 227.327 183.079 225.821C183.379 224.315 184.118 222.932 185.204 221.846C186.289 220.761 187.673 220.021 189.178 219.722C190.684 219.422 192.245 219.576 193.663 220.164C195.082 220.751 196.294 221.746 197.147 223.023C198 224.299 198.455 225.8 198.455 227.335C198.455 229.394 197.637 231.368 196.182 232.824C194.726 234.28 192.752 235.098 190.693 235.098Z" fill="url(#paint2_linear)"/>
</g>
<defs>
<linearGradient id="paint0_linear" x1="324.252" y1="114.958" x2="277.748" y2="128.787" gradientUnits="userSpaceOnUse">
<stop stop-color="#5FFBF1"/>
<stop offset="0.401042" stop-color="#86A8E7"/>
<stop offset="1" stop-color="#D16BA5"/>
</linearGradient>
<linearGradient id="paint1_linear" x1="275.91" y1="157.44" x2="229.406" y2="171.269" gradientUnits="userSpaceOnUse">
<stop stop-color="#5FFBF1"/>
<stop offset="0.401042" stop-color="#86A8E7"/>
<stop offset="1" stop-color="#D16BA5"/>
</linearGradient>
<linearGradient id="paint2_linear" x1="207.792" y1="210.176" x2="161.289" y2="224.005" gradientUnits="userSpaceOnUse">
<stop stop-color="#5FFBF1"/>
<stop offset="0.401042" stop-color="#86A8E7"/>
<stop offset="1" stop-color="#D16BA5"/>
</linearGradient>
<clipPath id="clip0">
<rect width="530.734" height="386" fill="white"/>
</clipPath>
</defs>
</svg>
