<svg width="320" height="279" viewBox="0 0 320 279" fill="none" xmlns="http://www.w3.org/2000/svg">
<rect width="320" height="279" rx="20" fill="url(#paint0_linear)"/>
<path d="M81.1449 146.336H86.6649V149H77.7849V132.248H81.1449V146.336ZM95.7045 149.216C94.4245 149.216 93.2725 148.936 92.2485 148.376C91.2245 147.8 90.4165 146.992 89.8245 145.952C89.2485 144.912 88.9605 143.712 88.9605 142.352C88.9605 140.992 89.2565 139.792 89.8485 138.752C90.4565 137.712 91.2805 136.912 92.3205 136.352C93.3605 135.776 94.5205 135.488 95.8005 135.488C97.0805 135.488 98.2405 135.776 99.2805 136.352C100.321 136.912 101.137 137.712 101.729 138.752C102.337 139.792 102.641 140.992 102.641 142.352C102.641 143.712 102.329 144.912 101.705 145.952C101.097 146.992 100.265 147.8 99.2085 148.376C98.1685 148.936 97.0005 149.216 95.7045 149.216ZM95.7045 146.288C96.3125 146.288 96.8805 146.144 97.4085 145.856C97.9525 145.552 98.3845 145.104 98.7045 144.512C99.0245 143.92 99.1845 143.2 99.1845 142.352C99.1845 141.088 98.8485 140.12 98.1765 139.448C97.5205 138.76 96.7125 138.416 95.7525 138.416C94.7925 138.416 93.9845 138.76 93.3285 139.448C92.6885 140.12 92.3685 141.088 92.3685 142.352C92.3685 143.616 92.6805 144.592 93.3045 145.28C93.9445 145.952 94.7445 146.288 95.7045 146.288ZM109.465 137.768C109.897 137.064 110.457 136.512 111.145 136.112C111.849 135.712 112.649 135.512 113.545 135.512V139.04H112.657C111.601 139.04 110.801 139.288 110.257 139.784C109.729 140.28 109.465 141.144 109.465 142.376V149H106.105V135.704H109.465V137.768ZM129.168 142.064C129.168 142.544 129.136 142.976 129.072 143.36H119.352C119.432 144.32 119.768 145.072 120.36 145.616C120.952 146.16 121.68 146.432 122.544 146.432C123.792 146.432 124.68 145.896 125.208 144.824H128.832C128.448 146.104 127.712 147.16 126.624 147.992C125.536 148.808 124.2 149.216 122.616 149.216C121.336 149.216 120.184 148.936 119.16 148.376C118.152 147.8 117.36 146.992 116.784 145.952C116.224 144.912 115.944 143.712 115.944 142.352C115.944 140.976 116.224 139.768 116.784 138.728C117.344 137.688 118.128 136.888 119.136 136.328C120.144 135.768 121.304 135.488 122.616 135.488C123.88 135.488 125.008 135.76 126 136.304C127.008 136.848 127.784 137.624 128.328 138.632C128.888 139.624 129.168 140.768 129.168 142.064ZM125.688 141.104C125.672 140.24 125.36 139.552 124.752 139.04C124.144 138.512 123.4 138.248 122.52 138.248C121.688 138.248 120.984 138.504 120.408 139.016C119.848 139.512 119.504 140.208 119.376 141.104H125.688ZM149.133 135.512C150.765 135.512 152.077 136.016 153.069 137.024C154.077 138.016 154.581 139.408 154.581 141.2V149H151.221V141.656C151.221 140.616 150.957 139.824 150.429 139.28C149.901 138.72 149.181 138.44 148.269 138.44C147.357 138.44 146.629 138.72 146.085 139.28C145.557 139.824 145.293 140.616 145.293 141.656V149H141.933V141.656C141.933 140.616 141.669 139.824 141.141 139.28C140.613 138.72 139.893 138.44 138.981 138.44C138.053 138.44 137.317 138.72 136.773 139.28C136.245 139.824 135.981 140.616 135.981 141.656V149H132.621V135.704H135.981V137.312C136.413 136.752 136.965 136.312 137.637 135.992C138.325 135.672 139.077 135.512 139.893 135.512C140.933 135.512 141.861 135.736 142.677 136.184C143.493 136.616 144.125 137.24 144.573 138.056C145.005 137.288 145.629 136.672 146.445 136.208C147.277 135.744 148.173 135.512 149.133 135.512ZM167.192 134.12C166.6 134.12 166.104 133.936 165.704 133.568C165.32 133.184 165.128 132.712 165.128 132.152C165.128 131.592 165.32 131.128 165.704 130.76C166.104 130.376 166.6 130.184 167.192 130.184C167.784 130.184 168.272 130.376 168.656 130.76C169.056 131.128 169.256 131.592 169.256 132.152C169.256 132.712 169.056 133.184 168.656 133.568C168.272 133.936 167.784 134.12 167.192 134.12ZM168.848 135.704V149H165.488V135.704H168.848ZM176.528 137.624C176.96 137.016 177.552 136.512 178.304 136.112C179.072 135.696 179.944 135.488 180.92 135.488C182.056 135.488 183.08 135.768 183.992 136.328C184.92 136.888 185.648 137.688 186.176 138.728C186.72 139.752 186.992 140.944 186.992 142.304C186.992 143.664 186.72 144.872 186.176 145.928C185.648 146.968 184.92 147.776 183.992 148.352C183.08 148.928 182.056 149.216 180.92 149.216C179.944 149.216 179.08 149.016 178.328 148.616C177.592 148.216 176.992 147.712 176.528 147.104V155.336H173.168V135.704H176.528V137.624ZM183.56 142.304C183.56 141.504 183.392 140.816 183.056 140.24C182.736 139.648 182.304 139.2 181.76 138.896C181.232 138.592 180.656 138.44 180.032 138.44C179.424 138.44 178.848 138.6 178.304 138.92C177.776 139.224 177.344 139.672 177.008 140.264C176.688 140.856 176.528 141.552 176.528 142.352C176.528 143.152 176.688 143.848 177.008 144.44C177.344 145.032 177.776 145.488 178.304 145.808C178.848 146.112 179.424 146.264 180.032 146.264C180.656 146.264 181.232 146.104 181.76 145.784C182.304 145.464 182.736 145.008 183.056 144.416C183.392 143.824 183.56 143.12 183.56 142.304ZM195.521 149.216C194.433 149.216 193.457 149.024 192.593 148.64C191.729 148.24 191.041 147.704 190.529 147.032C190.033 146.36 189.761 145.616 189.713 144.8H193.097C193.161 145.312 193.409 145.736 193.841 146.072C194.289 146.408 194.841 146.576 195.497 146.576C196.137 146.576 196.633 146.448 196.985 146.192C197.353 145.936 197.537 145.608 197.537 145.208C197.537 144.776 197.313 144.456 196.865 144.248C196.433 144.024 195.737 143.784 194.777 143.528C193.785 143.288 192.969 143.04 192.329 142.784C191.705 142.528 191.161 142.136 190.697 141.608C190.249 141.08 190.025 140.368 190.025 139.472C190.025 138.736 190.233 138.064 190.649 137.456C191.081 136.848 191.689 136.368 192.473 136.016C193.273 135.664 194.209 135.488 195.281 135.488C196.865 135.488 198.129 135.888 199.073 136.688C200.017 137.472 200.537 138.536 200.633 139.88H197.417C197.369 139.352 197.145 138.936 196.745 138.632C196.361 138.312 195.841 138.152 195.185 138.152C194.577 138.152 194.105 138.264 193.769 138.488C193.449 138.712 193.289 139.024 193.289 139.424C193.289 139.872 193.513 140.216 193.961 140.456C194.409 140.68 195.105 140.912 196.049 141.152C197.009 141.392 197.801 141.64 198.425 141.896C199.049 142.152 199.585 142.552 200.033 143.096C200.497 143.624 200.737 144.328 200.753 145.208C200.753 145.976 200.537 146.664 200.105 147.272C199.689 147.88 199.081 148.36 198.281 148.712C197.497 149.048 196.577 149.216 195.521 149.216ZM217.063 135.704V149H213.679V147.32C213.247 147.896 212.679 148.352 211.975 148.688C211.287 149.008 210.535 149.168 209.719 149.168C208.679 149.168 207.759 148.952 206.959 148.52C206.159 148.072 205.527 147.424 205.063 146.576C204.615 145.712 204.391 144.688 204.391 143.504V135.704H207.751V143.024C207.751 144.08 208.015 144.896 208.543 145.472C209.071 146.032 209.791 146.312 210.703 146.312C211.631 146.312 212.359 146.032 212.887 145.472C213.415 144.896 213.679 144.08 213.679 143.024V135.704H217.063ZM237.891 135.512C239.523 135.512 240.835 136.016 241.827 137.024C242.835 138.016 243.339 139.408 243.339 141.2V149H239.979V141.656C239.979 140.616 239.715 139.824 239.187 139.28C238.659 138.72 237.939 138.44 237.027 138.44C236.115 138.44 235.387 138.72 234.843 139.28C234.315 139.824 234.051 140.616 234.051 141.656V149H230.691V141.656C230.691 140.616 230.427 139.824 229.899 139.28C229.371 138.72 228.651 138.44 227.739 138.44C226.811 138.44 226.075 138.72 225.531 139.28C225.003 139.824 224.739 140.616 224.739 141.656V149H221.379V135.704H224.739V137.312C225.171 136.752 225.723 136.312 226.395 135.992C227.083 135.672 227.835 135.512 228.651 135.512C229.691 135.512 230.619 135.736 231.435 136.184C232.251 136.616 232.883 137.24 233.331 138.056C233.763 137.288 234.387 136.672 235.203 136.208C236.035 135.744 236.931 135.512 237.891 135.512Z" fill="white"/>
<path d="M51.7193 178.816H55.6233V180H50.2633V168.848H51.7193V178.816ZM60.9935 180.144C60.1722 180.144 59.4255 179.957 58.7535 179.584C58.0922 179.211 57.5695 178.683 57.1855 178C56.8122 177.307 56.6255 176.507 56.6255 175.6C56.6255 174.704 56.8175 173.915 57.2015 173.232C57.5962 172.539 58.1295 172.011 58.8015 171.648C59.4735 171.275 60.2255 171.088 61.0575 171.088C61.8895 171.088 62.6415 171.275 63.3135 171.648C63.9855 172.011 64.5135 172.533 64.8975 173.216C65.2922 173.899 65.4895 174.693 65.4895 175.6C65.4895 176.507 65.2868 177.307 64.8815 178C64.4868 178.683 63.9482 179.211 63.2655 179.584C62.5828 179.957 61.8255 180.144 60.9935 180.144ZM60.9935 178.864C61.5162 178.864 62.0068 178.741 62.4655 178.496C62.9242 178.251 63.2922 177.883 63.5695 177.392C63.8575 176.901 64.0015 176.304 64.0015 175.6C64.0015 174.896 63.8628 174.299 63.5855 173.808C63.3082 173.317 62.9455 172.955 62.4975 172.72C62.0495 172.475 61.5642 172.352 61.0415 172.352C60.5082 172.352 60.0175 172.475 59.5695 172.72C59.1322 172.955 58.7802 173.317 58.5135 173.808C58.2468 174.299 58.1135 174.896 58.1135 175.6C58.1135 176.315 58.2415 176.917 58.4975 177.408C58.7642 177.899 59.1162 178.267 59.5535 178.512C59.9908 178.747 60.4708 178.864 60.9935 178.864ZM68.8599 172.656C69.1159 172.155 69.4785 171.765 69.9479 171.488C70.4279 171.211 71.0092 171.072 71.6919 171.072V172.576H71.3079C69.6759 172.576 68.8599 173.461 68.8599 175.232V180H67.4039V171.232H68.8599V172.656ZM81.3726 175.28C81.3726 175.557 81.3566 175.851 81.3246 176.16H74.3166C74.37 177.024 74.6633 177.701 75.1966 178.192C75.7406 178.672 76.3966 178.912 77.1646 178.912C77.794 178.912 78.3166 178.768 78.7326 178.48C79.1593 178.181 79.458 177.787 79.6286 177.296H81.1966C80.962 178.139 80.4926 178.827 79.7886 179.36C79.0846 179.883 78.21 180.144 77.1646 180.144C76.3326 180.144 75.586 179.957 74.9246 179.584C74.274 179.211 73.762 178.683 73.3886 178C73.0153 177.307 72.8286 176.507 72.8286 175.6C72.8286 174.693 73.01 173.899 73.3726 173.216C73.7353 172.533 74.242 172.011 74.8926 171.648C75.554 171.275 76.3113 171.088 77.1646 171.088C77.9966 171.088 78.7326 171.269 79.3726 171.632C80.0126 171.995 80.5033 172.496 80.8446 173.136C81.1966 173.765 81.3726 174.48 81.3726 175.28ZM79.8686 174.976C79.8686 174.421 79.746 173.947 79.5006 173.552C79.2553 173.147 78.9193 172.843 78.4926 172.64C78.0766 172.427 77.6126 172.32 77.1006 172.32C76.3646 172.32 75.7353 172.555 75.2126 173.024C74.7006 173.493 74.4073 174.144 74.3326 174.976H79.8686ZM93.8385 171.072C94.5212 171.072 95.1292 171.216 95.6625 171.504C96.1958 171.781 96.6172 172.203 96.9265 172.768C97.2358 173.333 97.3905 174.021 97.3905 174.832V180H95.9505V175.04C95.9505 174.165 95.7318 173.499 95.2945 173.04C94.8678 172.571 94.2865 172.336 93.5505 172.336C92.7932 172.336 92.1905 172.581 91.7425 173.072C91.2945 173.552 91.0705 174.251 91.0705 175.168V180H89.6305V175.04C89.6305 174.165 89.4118 173.499 88.9745 173.04C88.5478 172.571 87.9665 172.336 87.2305 172.336C86.4732 172.336 85.8705 172.581 85.4225 173.072C84.9745 173.552 84.7505 174.251 84.7505 175.168V180H83.2945V171.232H84.7505V172.496C85.0385 172.037 85.4225 171.685 85.9025 171.44C86.3932 171.195 86.9318 171.072 87.5185 171.072C88.2545 171.072 88.9052 171.237 89.4705 171.568C90.0358 171.899 90.4572 172.384 90.7345 173.024C90.9798 172.405 91.3852 171.925 91.9505 171.584C92.5158 171.243 93.1452 171.072 93.8385 171.072ZM104.797 169.808C104.519 169.808 104.285 169.712 104.093 169.52C103.901 169.328 103.805 169.093 103.805 168.816C103.805 168.539 103.901 168.304 104.093 168.112C104.285 167.92 104.519 167.824 104.797 167.824C105.063 167.824 105.287 167.92 105.469 168.112C105.661 168.304 105.757 168.539 105.757 168.816C105.757 169.093 105.661 169.328 105.469 169.52C105.287 169.712 105.063 169.808 104.797 169.808ZM105.501 171.232V180H104.045V171.232H105.501ZM109.438 172.848C109.726 172.347 110.153 171.931 110.718 171.6C111.294 171.259 111.961 171.088 112.718 171.088C113.497 171.088 114.201 171.275 114.83 171.648C115.47 172.021 115.971 172.549 116.334 173.232C116.697 173.904 116.878 174.688 116.878 175.584C116.878 176.469 116.697 177.259 116.334 177.952C115.971 178.645 115.47 179.184 114.83 179.568C114.201 179.952 113.497 180.144 112.718 180.144C111.971 180.144 111.31 179.979 110.734 179.648C110.169 179.307 109.737 178.885 109.438 178.384V184.16H107.982V171.232H109.438V172.848ZM115.39 175.584C115.39 174.923 115.257 174.347 114.99 173.856C114.723 173.365 114.361 172.992 113.902 172.736C113.454 172.48 112.958 172.352 112.414 172.352C111.881 172.352 111.385 172.485 110.926 172.752C110.478 173.008 110.115 173.387 109.838 173.888C109.571 174.379 109.438 174.949 109.438 175.6C109.438 176.261 109.571 176.843 109.838 177.344C110.115 177.835 110.478 178.213 110.926 178.48C111.385 178.736 111.881 178.864 112.414 178.864C112.958 178.864 113.454 178.736 113.902 178.48C114.361 178.213 114.723 177.835 114.99 177.344C115.257 176.843 115.39 176.256 115.39 175.584ZM121.899 180.144C121.227 180.144 120.624 180.032 120.091 179.808C119.557 179.573 119.136 179.253 118.827 178.848C118.517 178.432 118.347 177.957 118.315 177.424H119.819C119.861 177.861 120.064 178.219 120.427 178.496C120.8 178.773 121.285 178.912 121.883 178.912C122.437 178.912 122.875 178.789 123.195 178.544C123.515 178.299 123.675 177.989 123.675 177.616C123.675 177.232 123.504 176.949 123.163 176.768C122.821 176.576 122.293 176.389 121.579 176.208C120.928 176.037 120.395 175.867 119.979 175.696C119.573 175.515 119.221 175.253 118.923 174.912C118.635 174.56 118.491 174.101 118.491 173.536C118.491 173.088 118.624 172.677 118.891 172.304C119.157 171.931 119.536 171.637 120.027 171.424C120.517 171.2 121.077 171.088 121.707 171.088C122.677 171.088 123.461 171.333 124.059 171.824C124.656 172.315 124.976 172.987 125.019 173.84H123.563C123.531 173.381 123.344 173.013 123.003 172.736C122.672 172.459 122.224 172.32 121.659 172.32C121.136 172.32 120.72 172.432 120.411 172.656C120.101 172.88 119.947 173.173 119.947 173.536C119.947 173.824 120.037 174.064 120.219 174.256C120.411 174.437 120.645 174.587 120.923 174.704C121.211 174.811 121.605 174.933 122.107 175.072C122.736 175.243 123.248 175.413 123.643 175.584C124.037 175.744 124.373 175.989 124.651 176.32C124.939 176.651 125.088 177.083 125.099 177.616C125.099 178.096 124.965 178.528 124.699 178.912C124.432 179.296 124.053 179.6 123.563 179.824C123.083 180.037 122.528 180.144 121.899 180.144ZM134.93 171.232V180H133.474V178.704C133.197 179.152 132.807 179.504 132.306 179.76C131.815 180.005 131.271 180.128 130.674 180.128C129.991 180.128 129.378 179.989 128.834 179.712C128.29 179.424 127.858 178.997 127.538 178.432C127.229 177.867 127.074 177.179 127.074 176.368V171.232H128.514V176.176C128.514 177.04 128.733 177.707 129.17 178.176C129.607 178.635 130.205 178.864 130.962 178.864C131.741 178.864 132.354 178.624 132.802 178.144C133.25 177.664 133.474 176.965 133.474 176.048V171.232H134.93ZM147.932 171.072C148.615 171.072 149.223 171.216 149.756 171.504C150.29 171.781 150.711 172.203 151.02 172.768C151.33 173.333 151.484 174.021 151.484 174.832V180H150.044V175.04C150.044 174.165 149.826 173.499 149.388 173.04C148.962 172.571 148.38 172.336 147.644 172.336C146.887 172.336 146.284 172.581 145.836 173.072C145.388 173.552 145.164 174.251 145.164 175.168V180H143.724V175.04C143.724 174.165 143.506 173.499 143.068 173.04C142.642 172.571 142.06 172.336 141.324 172.336C140.567 172.336 139.964 172.581 139.516 173.072C139.068 173.552 138.844 174.251 138.844 175.168V180H137.388V171.232H138.844V172.496C139.132 172.037 139.516 171.685 139.996 171.44C140.487 171.195 141.026 171.072 141.612 171.072C142.348 171.072 142.999 171.237 143.564 171.568C144.13 171.899 144.551 172.384 144.828 173.024C145.074 172.405 145.479 171.925 146.044 171.584C146.61 171.243 147.239 171.072 147.932 171.072ZM157.594 175.584C157.594 174.688 157.776 173.904 158.138 173.232C158.501 172.549 158.997 172.021 159.626 171.648C160.266 171.275 160.981 171.088 161.77 171.088C162.453 171.088 163.088 171.248 163.674 171.568C164.261 171.877 164.709 172.288 165.018 172.8V168.16H166.49V180H165.018V178.352C164.73 178.875 164.304 179.307 163.738 179.648C163.173 179.979 162.512 180.144 161.754 180.144C160.976 180.144 160.266 179.952 159.626 179.568C158.997 179.184 158.501 178.645 158.138 177.952C157.776 177.259 157.594 176.469 157.594 175.584ZM165.018 175.6C165.018 174.939 164.885 174.363 164.618 173.872C164.352 173.381 163.989 173.008 163.53 172.752C163.082 172.485 162.586 172.352 162.042 172.352C161.498 172.352 161.002 172.48 160.554 172.736C160.106 172.992 159.749 173.365 159.482 173.856C159.216 174.347 159.082 174.923 159.082 175.584C159.082 176.256 159.216 176.843 159.482 177.344C159.749 177.835 160.106 178.213 160.554 178.48C161.002 178.736 161.498 178.864 162.042 178.864C162.586 178.864 163.082 178.736 163.53 178.48C163.989 178.213 164.352 177.835 164.618 177.344C164.885 176.843 165.018 176.261 165.018 175.6ZM172.775 180.144C171.953 180.144 171.207 179.957 170.535 179.584C169.873 179.211 169.351 178.683 168.967 178C168.593 177.307 168.407 176.507 168.407 175.6C168.407 174.704 168.599 173.915 168.983 173.232C169.377 172.539 169.911 172.011 170.583 171.648C171.255 171.275 172.007 171.088 172.839 171.088C173.671 171.088 174.423 171.275 175.095 171.648C175.767 172.011 176.295 172.533 176.679 173.216C177.073 173.899 177.271 174.693 177.271 175.6C177.271 176.507 177.068 177.307 176.663 178C176.268 178.683 175.729 179.211 175.047 179.584C174.364 179.957 173.607 180.144 172.775 180.144ZM172.775 178.864C173.297 178.864 173.788 178.741 174.247 178.496C174.705 178.251 175.073 177.883 175.351 177.392C175.639 176.901 175.783 176.304 175.783 175.6C175.783 174.896 175.644 174.299 175.367 173.808C175.089 173.317 174.727 172.955 174.279 172.72C173.831 172.475 173.345 172.352 172.823 172.352C172.289 172.352 171.799 172.475 171.351 172.72C170.913 172.955 170.561 173.317 170.295 173.808C170.028 174.299 169.895 174.896 169.895 175.6C169.895 176.315 170.023 176.917 170.279 177.408C170.545 177.899 170.897 178.267 171.335 178.512C171.772 178.747 172.252 178.864 172.775 178.864ZM180.641 168.16V180H179.185V168.16H180.641ZM186.947 180.144C186.125 180.144 185.379 179.957 184.707 179.584C184.045 179.211 183.523 178.683 183.139 178C182.765 177.307 182.579 176.507 182.579 175.6C182.579 174.704 182.771 173.915 183.155 173.232C183.549 172.539 184.083 172.011 184.755 171.648C185.427 171.275 186.179 171.088 187.011 171.088C187.843 171.088 188.595 171.275 189.267 171.648C189.939 172.011 190.467 172.533 190.851 173.216C191.245 173.899 191.443 174.693 191.443 175.6C191.443 176.507 191.24 177.307 190.835 178C190.44 178.683 189.901 179.211 189.219 179.584C188.536 179.957 187.779 180.144 186.947 180.144ZM186.947 178.864C187.469 178.864 187.96 178.741 188.419 178.496C188.877 178.251 189.245 177.883 189.523 177.392C189.811 176.901 189.955 176.304 189.955 175.6C189.955 174.896 189.816 174.299 189.539 173.808C189.261 173.317 188.899 172.955 188.451 172.72C188.003 172.475 187.517 172.352 186.995 172.352C186.461 172.352 185.971 172.475 185.523 172.72C185.085 172.955 184.733 173.317 184.467 173.808C184.2 174.299 184.067 174.896 184.067 175.6C184.067 176.315 184.195 176.917 184.451 177.408C184.717 177.899 185.069 178.267 185.507 178.512C185.944 178.747 186.424 178.864 186.947 178.864ZM194.813 172.656C195.069 172.155 195.432 171.765 195.901 171.488C196.381 171.211 196.962 171.072 197.645 171.072V172.576H197.261C195.629 172.576 194.813 173.461 194.813 175.232V180H193.357V171.232H194.813V172.656ZM206.695 180.144C206.023 180.144 205.421 180.032 204.887 179.808C204.354 179.573 203.933 179.253 203.623 178.848C203.314 178.432 203.143 177.957 203.111 177.424H204.615C204.658 177.861 204.861 178.219 205.223 178.496C205.597 178.773 206.082 178.912 206.679 178.912C207.234 178.912 207.671 178.789 207.991 178.544C208.311 178.299 208.471 177.989 208.471 177.616C208.471 177.232 208.301 176.949 207.959 176.768C207.618 176.576 207.09 176.389 206.375 176.208C205.725 176.037 205.191 175.867 204.775 175.696C204.37 175.515 204.018 175.253 203.719 174.912C203.431 174.56 203.287 174.101 203.287 173.536C203.287 173.088 203.421 172.677 203.687 172.304C203.954 171.931 204.333 171.637 204.823 171.424C205.314 171.2 205.874 171.088 206.503 171.088C207.474 171.088 208.258 171.333 208.855 171.824C209.453 172.315 209.773 172.987 209.815 173.84H208.359C208.327 173.381 208.141 173.013 207.799 172.736C207.469 172.459 207.021 172.32 206.455 172.32C205.933 172.32 205.517 172.432 205.207 172.656C204.898 172.88 204.743 173.173 204.743 173.536C204.743 173.824 204.834 174.064 205.015 174.256C205.207 174.437 205.442 174.587 205.719 174.704C206.007 174.811 206.402 174.933 206.903 175.072C207.533 175.243 208.045 175.413 208.439 175.584C208.834 175.744 209.17 175.989 209.447 176.32C209.735 176.651 209.885 177.083 209.895 177.616C209.895 178.096 209.762 178.528 209.495 178.912C209.229 179.296 208.85 179.6 208.359 179.824C207.879 180.037 207.325 180.144 206.695 180.144ZM212.703 169.808C212.425 169.808 212.191 169.712 211.999 169.52C211.807 169.328 211.711 169.093 211.711 168.816C211.711 168.539 211.807 168.304 211.999 168.112C212.191 167.92 212.425 167.824 212.703 167.824C212.969 167.824 213.193 167.92 213.375 168.112C213.567 168.304 213.663 168.539 213.663 168.816C213.663 169.093 213.567 169.328 213.375 169.52C213.193 169.712 212.969 169.808 212.703 169.808ZM213.407 171.232V180H211.951V171.232H213.407ZM217.664 172.432V177.6C217.664 178.027 217.755 178.331 217.936 178.512C218.118 178.683 218.432 178.768 218.88 178.768H219.952V180H218.64C217.83 180 217.222 179.813 216.816 179.44C216.411 179.067 216.208 178.453 216.208 177.6V172.432H215.072V171.232H216.208V169.024H217.664V171.232H219.952V172.432H217.664ZM225.438 175.584C225.438 174.688 225.619 173.904 225.982 173.232C226.345 172.549 226.841 172.021 227.47 171.648C228.11 171.275 228.819 171.088 229.598 171.088C230.366 171.088 231.033 171.253 231.598 171.584C232.163 171.915 232.585 172.331 232.862 172.832V171.232H234.334V180H232.862V178.368C232.574 178.88 232.142 179.307 231.566 179.648C231.001 179.979 230.339 180.144 229.582 180.144C228.803 180.144 228.099 179.952 227.47 179.568C226.841 179.184 226.345 178.645 225.982 177.952C225.619 177.259 225.438 176.469 225.438 175.584ZM232.862 175.6C232.862 174.939 232.729 174.363 232.462 173.872C232.195 173.381 231.833 173.008 231.374 172.752C230.926 172.485 230.43 172.352 229.886 172.352C229.342 172.352 228.846 172.48 228.398 172.736C227.95 172.992 227.593 173.365 227.326 173.856C227.059 174.347 226.926 174.923 226.926 175.584C226.926 176.256 227.059 176.843 227.326 177.344C227.593 177.835 227.95 178.213 228.398 178.48C228.846 178.736 229.342 178.864 229.886 178.864C230.43 178.864 230.926 178.736 231.374 178.48C231.833 178.213 232.195 177.835 232.462 177.344C232.729 176.843 232.862 176.261 232.862 175.6ZM247.339 171.072C248.021 171.072 248.629 171.216 249.163 171.504C249.696 171.781 250.117 172.203 250.427 172.768C250.736 173.333 250.891 174.021 250.891 174.832V180H249.451V175.04C249.451 174.165 249.232 173.499 248.795 173.04C248.368 172.571 247.787 172.336 247.051 172.336C246.293 172.336 245.691 172.581 245.243 173.072C244.795 173.552 244.571 174.251 244.571 175.168V180H243.131V175.04C243.131 174.165 242.912 173.499 242.475 173.04C242.048 172.571 241.467 172.336 240.731 172.336C239.973 172.336 239.371 172.581 238.923 173.072C238.475 173.552 238.251 174.251 238.251 175.168V180H236.795V171.232H238.251V172.496C238.539 172.037 238.923 171.685 239.403 171.44C239.893 171.195 240.432 171.072 241.019 171.072C241.755 171.072 242.405 171.237 242.971 171.568C243.536 171.899 243.957 172.384 244.235 173.024C244.48 172.405 244.885 171.925 245.451 171.584C246.016 171.243 246.645 171.072 247.339 171.072ZM261.279 175.28C261.279 175.557 261.263 175.851 261.231 176.16H254.223C254.276 177.024 254.57 177.701 255.103 178.192C255.647 178.672 256.303 178.912 257.071 178.912C257.7 178.912 258.223 178.768 258.639 178.48C259.066 178.181 259.364 177.787 259.535 177.296H261.103C260.868 178.139 260.399 178.827 259.695 179.36C258.991 179.883 258.116 180.144 257.071 180.144C256.239 180.144 255.492 179.957 254.831 179.584C254.18 179.211 253.668 178.683 253.295 178C252.922 177.307 252.735 176.507 252.735 175.6C252.735 174.693 252.916 173.899 253.279 173.216C253.642 172.533 254.148 172.011 254.799 171.648C255.46 171.275 256.218 171.088 257.071 171.088C257.903 171.088 258.639 171.269 259.279 171.632C259.919 171.995 260.41 172.496 260.751 173.136C261.103 173.765 261.279 174.48 261.279 175.28ZM259.775 174.976C259.775 174.421 259.652 173.947 259.407 173.552C259.162 173.147 258.826 172.843 258.399 172.64C257.983 172.427 257.519 172.32 257.007 172.32C256.271 172.32 255.642 172.555 255.119 173.024C254.607 173.493 254.314 174.144 254.239 174.976H259.775ZM264.977 172.432V177.6C264.977 178.027 265.067 178.331 265.249 178.512C265.43 178.683 265.745 178.768 266.193 178.768H267.265V180H265.953C265.142 180 264.534 179.813 264.129 179.44C263.723 179.067 263.521 178.453 263.521 177.6V172.432H262.385V171.232H263.521V169.024H264.977V171.232H267.265V172.432H264.977ZM270.533 177.984L268.741 182.288H267.765L268.933 177.984H270.533ZM54.938 199.6C54.938 198.693 55.1193 197.904 55.482 197.232C55.8447 196.549 56.346 196.021 56.986 195.648C57.6367 195.275 58.378 195.088 59.21 195.088C60.2873 195.088 61.1727 195.349 61.866 195.872C62.57 196.395 63.034 197.12 63.258 198.048H61.69C61.5407 197.515 61.2473 197.093 60.81 196.784C60.3833 196.475 59.85 196.32 59.21 196.32C58.378 196.32 57.706 196.608 57.194 197.184C56.682 197.749 56.426 198.555 56.426 199.6C56.426 200.656 56.682 201.472 57.194 202.048C57.706 202.624 58.378 202.912 59.21 202.912C59.85 202.912 60.3833 202.763 60.81 202.464C61.2367 202.165 61.53 201.739 61.69 201.184H63.258C63.0233 202.08 62.554 202.8 61.85 203.344C61.146 203.877 60.266 204.144 59.21 204.144C58.378 204.144 57.6367 203.957 56.986 203.584C56.346 203.211 55.8447 202.683 55.482 202C55.1193 201.317 54.938 200.517 54.938 199.6ZM69.0248 204.144C68.2034 204.144 67.4568 203.957 66.7848 203.584C66.1234 203.211 65.6008 202.683 65.2168 202C64.8434 201.307 64.6568 200.507 64.6568 199.6C64.6568 198.704 64.8488 197.915 65.2328 197.232C65.6274 196.539 66.1608 196.011 66.8328 195.648C67.5048 195.275 68.2568 195.088 69.0888 195.088C69.9208 195.088 70.6728 195.275 71.3448 195.648C72.0168 196.011 72.5448 196.533 72.9288 197.216C73.3234 197.899 73.5208 198.693 73.5208 199.6C73.5208 200.507 73.3181 201.307 72.9128 202C72.5181 202.683 71.9794 203.211 71.2968 203.584C70.6141 203.957 69.8568 204.144 69.0248 204.144ZM69.0248 202.864C69.5474 202.864 70.0381 202.741 70.4968 202.496C70.9554 202.251 71.3234 201.883 71.6008 201.392C71.8888 200.901 72.0328 200.304 72.0328 199.6C72.0328 198.896 71.8941 198.299 71.6168 197.808C71.3394 197.317 70.9768 196.955 70.5288 196.72C70.0808 196.475 69.5954 196.352 69.0728 196.352C68.5394 196.352 68.0488 196.475 67.6008 196.72C67.1634 196.955 66.8114 197.317 66.5448 197.808C66.2781 198.299 66.1448 198.896 66.1448 199.6C66.1448 200.315 66.2728 200.917 66.5288 201.408C66.7954 201.899 67.1474 202.267 67.5848 202.512C68.0221 202.747 68.5021 202.864 69.0248 202.864ZM79.7071 195.072C80.7738 195.072 81.6378 195.397 82.2991 196.048C82.9605 196.688 83.2911 197.616 83.2911 198.832V204H81.8511V199.04C81.8511 198.165 81.6325 197.499 81.1951 197.04C80.7578 196.571 80.1605 196.336 79.4031 196.336C78.6351 196.336 78.0218 196.576 77.5631 197.056C77.1151 197.536 76.8911 198.235 76.8911 199.152V204H75.4351V195.232H76.8911V196.48C77.1791 196.032 77.5685 195.685 78.0591 195.44C78.5605 195.195 79.1098 195.072 79.7071 195.072ZM88.7735 204.144C88.1015 204.144 87.4988 204.032 86.9655 203.808C86.4322 203.573 86.0108 203.253 85.7015 202.848C85.3922 202.432 85.2215 201.957 85.1895 201.424H86.6935C86.7362 201.861 86.9388 202.219 87.3015 202.496C87.6748 202.773 88.1602 202.912 88.7575 202.912C89.3122 202.912 89.7495 202.789 90.0695 202.544C90.3895 202.299 90.5495 201.989 90.5495 201.616C90.5495 201.232 90.3788 200.949 90.0375 200.768C89.6962 200.576 89.1682 200.389 88.4535 200.208C87.8028 200.037 87.2695 199.867 86.8535 199.696C86.4482 199.515 86.0962 199.253 85.7975 198.912C85.5095 198.56 85.3655 198.101 85.3655 197.536C85.3655 197.088 85.4988 196.677 85.7655 196.304C86.0322 195.931 86.4108 195.637 86.9015 195.424C87.3922 195.2 87.9522 195.088 88.5815 195.088C89.5522 195.088 90.3362 195.333 90.9335 195.824C91.5308 196.315 91.8508 196.987 91.8935 197.84H90.4375C90.4055 197.381 90.2188 197.013 89.8775 196.736C89.5468 196.459 89.0988 196.32 88.5335 196.32C88.0108 196.32 87.5948 196.432 87.2855 196.656C86.9762 196.88 86.8215 197.173 86.8215 197.536C86.8215 197.824 86.9122 198.064 87.0935 198.256C87.2855 198.437 87.5202 198.587 87.7975 198.704C88.0855 198.811 88.4802 198.933 88.9815 199.072C89.6108 199.243 90.1228 199.413 90.5175 199.584C90.9122 199.744 91.2482 199.989 91.5255 200.32C91.8135 200.651 91.9628 201.083 91.9735 201.616C91.9735 202.096 91.8402 202.528 91.5735 202.912C91.3068 203.296 90.9282 203.6 90.4375 203.824C89.9575 204.037 89.4028 204.144 88.7735 204.144ZM102.029 199.28C102.029 199.557 102.013 199.851 101.981 200.16H94.9729C95.0262 201.024 95.3195 201.701 95.8529 202.192C96.3969 202.672 97.0529 202.912 97.8209 202.912C98.4502 202.912 98.9729 202.768 99.3889 202.48C99.8155 202.181 100.114 201.787 100.285 201.296H101.853C101.618 202.139 101.149 202.827 100.445 203.36C99.7409 203.883 98.8662 204.144 97.8209 204.144C96.9889 204.144 96.2422 203.957 95.5809 203.584C94.9302 203.211 94.4182 202.683 94.0449 202C93.6715 201.307 93.4849 200.507 93.4849 199.6C93.4849 198.693 93.6662 197.899 94.0289 197.216C94.3915 196.533 94.8982 196.011 95.5489 195.648C96.2102 195.275 96.9675 195.088 97.8209 195.088C98.6529 195.088 99.3889 195.269 100.029 195.632C100.669 195.995 101.16 196.496 101.501 197.136C101.853 197.765 102.029 198.48 102.029 199.28ZM100.525 198.976C100.525 198.421 100.402 197.947 100.157 197.552C99.9115 197.147 99.5755 196.843 99.1489 196.64C98.7329 196.427 98.2689 196.32 97.7569 196.32C97.0209 196.32 96.3915 196.555 95.8689 197.024C95.3569 197.493 95.0635 198.144 94.9889 198.976H100.525ZM103.407 199.6C103.407 198.693 103.588 197.904 103.951 197.232C104.313 196.549 104.815 196.021 105.455 195.648C106.105 195.275 106.847 195.088 107.679 195.088C108.756 195.088 109.641 195.349 110.335 195.872C111.039 196.395 111.503 197.12 111.727 198.048H110.159C110.009 197.515 109.716 197.093 109.279 196.784C108.852 196.475 108.319 196.32 107.679 196.32C106.847 196.32 106.175 196.608 105.663 197.184C105.151 197.749 104.895 198.555 104.895 199.6C104.895 200.656 105.151 201.472 105.663 202.048C106.175 202.624 106.847 202.912 107.679 202.912C108.319 202.912 108.852 202.763 109.279 202.464C109.705 202.165 109.999 201.739 110.159 201.184H111.727C111.492 202.08 111.023 202.8 110.319 203.344C109.615 203.877 108.735 204.144 107.679 204.144C106.847 204.144 106.105 203.957 105.455 203.584C104.815 203.211 104.313 202.683 103.951 202C103.588 201.317 103.407 200.517 103.407 199.6ZM115.446 196.432V201.6C115.446 202.027 115.536 202.331 115.718 202.512C115.899 202.683 116.214 202.768 116.661 202.768H117.734V204H116.422C115.611 204 115.003 203.813 114.598 203.44C114.192 203.067 113.99 202.453 113.99 201.6V196.432H112.854V195.232H113.99V193.024H115.446V195.232H117.734V196.432H115.446ZM127.498 199.28C127.498 199.557 127.482 199.851 127.45 200.16H120.442C120.495 201.024 120.788 201.701 121.322 202.192C121.866 202.672 122.522 202.912 123.29 202.912C123.919 202.912 124.442 202.768 124.858 202.48C125.284 202.181 125.583 201.787 125.754 201.296H127.322C127.087 202.139 126.618 202.827 125.914 203.36C125.21 203.883 124.335 204.144 123.29 204.144C122.458 204.144 121.711 203.957 121.05 203.584C120.399 203.211 119.887 202.683 119.514 202C119.14 201.307 118.954 200.507 118.954 199.6C118.954 198.693 119.135 197.899 119.498 197.216C119.86 196.533 120.367 196.011 121.018 195.648C121.679 195.275 122.436 195.088 123.29 195.088C124.122 195.088 124.858 195.269 125.498 195.632C126.138 195.995 126.628 196.496 126.97 197.136C127.322 197.765 127.498 198.48 127.498 199.28ZM125.994 198.976C125.994 198.421 125.871 197.947 125.626 197.552C125.38 197.147 125.044 196.843 124.618 196.64C124.202 196.427 123.738 196.32 123.226 196.32C122.49 196.32 121.86 196.555 121.338 197.024C120.826 197.493 120.532 198.144 120.458 198.976H125.994ZM131.196 196.432V201.6C131.196 202.027 131.286 202.331 131.468 202.512C131.649 202.683 131.964 202.768 132.411 202.768H133.484V204H132.172C131.361 204 130.753 203.813 130.348 203.44C129.942 203.067 129.74 202.453 129.74 201.6V196.432H128.604V195.232H129.74V193.024H131.196V195.232H133.484V196.432H131.196ZM143.024 195.232V204H141.568V202.704C141.29 203.152 140.901 203.504 140.4 203.76C139.909 204.005 139.365 204.128 138.768 204.128C138.085 204.128 137.472 203.989 136.928 203.712C136.384 203.424 135.952 202.997 135.632 202.432C135.322 201.867 135.168 201.179 135.168 200.368V195.232H136.608V200.176C136.608 201.04 136.826 201.707 137.264 202.176C137.701 202.635 138.298 202.864 139.056 202.864C139.834 202.864 140.448 202.624 140.896 202.144C141.344 201.664 141.568 200.965 141.568 200.048V195.232H143.024ZM146.938 196.656C147.194 196.155 147.557 195.765 148.026 195.488C148.506 195.211 149.087 195.072 149.77 195.072V196.576H149.386C147.754 196.576 146.938 197.461 146.938 199.232V204H145.482V195.232H146.938V196.656ZM155.172 199.584C155.172 198.688 155.354 197.904 155.716 197.232C156.079 196.549 156.575 196.021 157.204 195.648C157.844 195.275 158.554 195.088 159.332 195.088C160.1 195.088 160.767 195.253 161.332 195.584C161.898 195.915 162.319 196.331 162.596 196.832V195.232H164.068V204H162.596V202.368C162.308 202.88 161.876 203.307 161.3 203.648C160.735 203.979 160.074 204.144 159.316 204.144C158.538 204.144 157.834 203.952 157.204 203.568C156.575 203.184 156.079 202.645 155.716 201.952C155.354 201.259 155.172 200.469 155.172 199.584ZM162.596 199.6C162.596 198.939 162.463 198.363 162.196 197.872C161.93 197.381 161.567 197.008 161.108 196.752C160.66 196.485 160.164 196.352 159.62 196.352C159.076 196.352 158.58 196.48 158.132 196.736C157.684 196.992 157.327 197.365 157.06 197.856C156.794 198.347 156.66 198.923 156.66 199.584C156.66 200.256 156.794 200.843 157.06 201.344C157.327 201.835 157.684 202.213 158.132 202.48C158.58 202.736 159.076 202.864 159.62 202.864C160.164 202.864 160.66 202.736 161.108 202.48C161.567 202.213 161.93 201.835 162.196 201.344C162.463 200.843 162.596 200.261 162.596 199.6ZM165.985 199.584C165.985 198.688 166.166 197.904 166.529 197.232C166.892 196.549 167.388 196.021 168.017 195.648C168.657 195.275 169.372 195.088 170.161 195.088C170.844 195.088 171.478 195.248 172.065 195.568C172.652 195.877 173.1 196.288 173.409 196.8V192.16H174.881V204H173.409V202.352C173.121 202.875 172.694 203.307 172.129 203.648C171.564 203.979 170.902 204.144 170.145 204.144C169.366 204.144 168.657 203.952 168.017 203.568C167.388 203.184 166.892 202.645 166.529 201.952C166.166 201.259 165.985 200.469 165.985 199.584ZM173.409 199.6C173.409 198.939 173.276 198.363 173.009 197.872C172.742 197.381 172.38 197.008 171.921 196.752C171.473 196.485 170.977 196.352 170.433 196.352C169.889 196.352 169.393 196.48 168.945 196.736C168.497 196.992 168.14 197.365 167.873 197.856C167.606 198.347 167.473 198.923 167.473 199.584C167.473 200.256 167.606 200.843 167.873 201.344C168.14 201.835 168.497 202.213 168.945 202.48C169.393 202.736 169.889 202.864 170.433 202.864C170.977 202.864 171.473 202.736 171.921 202.48C172.38 202.213 172.742 201.835 173.009 201.344C173.276 200.843 173.409 200.261 173.409 199.6ZM178.093 193.808C177.816 193.808 177.581 193.712 177.389 193.52C177.197 193.328 177.101 193.093 177.101 192.816C177.101 192.539 177.197 192.304 177.389 192.112C177.581 191.92 177.816 191.824 178.093 191.824C178.36 191.824 178.584 191.92 178.765 192.112C178.957 192.304 179.053 192.539 179.053 192.816C179.053 193.093 178.957 193.328 178.765 193.52C178.584 193.712 178.36 193.808 178.093 193.808ZM178.797 195.232V204H177.341V195.232H178.797ZM182.735 196.848C183.023 196.347 183.45 195.931 184.015 195.6C184.591 195.259 185.258 195.088 186.015 195.088C186.794 195.088 187.498 195.275 188.127 195.648C188.767 196.021 189.268 196.549 189.631 197.232C189.994 197.904 190.175 198.688 190.175 199.584C190.175 200.469 189.994 201.259 189.631 201.952C189.268 202.645 188.767 203.184 188.127 203.568C187.498 203.952 186.794 204.144 186.015 204.144C185.268 204.144 184.607 203.979 184.031 203.648C183.466 203.307 183.034 202.885 182.735 202.384V208.16H181.279V195.232H182.735V196.848ZM188.687 199.584C188.687 198.923 188.554 198.347 188.287 197.856C188.02 197.365 187.658 196.992 187.199 196.736C186.751 196.48 186.255 196.352 185.711 196.352C185.178 196.352 184.682 196.485 184.223 196.752C183.775 197.008 183.412 197.387 183.135 197.888C182.868 198.379 182.735 198.949 182.735 199.6C182.735 200.261 182.868 200.843 183.135 201.344C183.412 201.835 183.775 202.213 184.223 202.48C184.682 202.736 185.178 202.864 185.711 202.864C186.255 202.864 186.751 202.736 187.199 202.48C187.658 202.213 188.02 201.835 188.287 201.344C188.554 200.843 188.687 200.256 188.687 199.584ZM192.843 193.808C192.566 193.808 192.331 193.712 192.139 193.52C191.947 193.328 191.851 193.093 191.851 192.816C191.851 192.539 191.947 192.304 192.139 192.112C192.331 191.92 192.566 191.824 192.843 191.824C193.11 191.824 193.334 191.92 193.515 192.112C193.707 192.304 193.803 192.539 193.803 192.816C193.803 193.093 193.707 193.328 193.515 193.52C193.334 193.712 193.11 193.808 192.843 193.808ZM193.547 195.232V204H192.091V195.232H193.547ZM199.133 204.144C198.461 204.144 197.858 204.032 197.325 203.808C196.792 203.573 196.37 203.253 196.061 202.848C195.752 202.432 195.581 201.957 195.549 201.424H197.053C197.096 201.861 197.298 202.219 197.661 202.496C198.034 202.773 198.52 202.912 199.117 202.912C199.672 202.912 200.109 202.789 200.429 202.544C200.749 202.299 200.909 201.989 200.909 201.616C200.909 201.232 200.738 200.949 200.397 200.768C200.056 200.576 199.528 200.389 198.813 200.208C198.162 200.037 197.629 199.867 197.213 199.696C196.808 199.515 196.456 199.253 196.157 198.912C195.869 198.56 195.725 198.101 195.725 197.536C195.725 197.088 195.858 196.677 196.125 196.304C196.392 195.931 196.77 195.637 197.261 195.424C197.752 195.2 198.312 195.088 198.941 195.088C199.912 195.088 200.696 195.333 201.293 195.824C201.89 196.315 202.21 196.987 202.253 197.84H200.797C200.765 197.381 200.578 197.013 200.237 196.736C199.906 196.459 199.458 196.32 198.893 196.32C198.37 196.32 197.954 196.432 197.645 196.656C197.336 196.88 197.181 197.173 197.181 197.536C197.181 197.824 197.272 198.064 197.453 198.256C197.645 198.437 197.88 198.587 198.157 198.704C198.445 198.811 198.84 198.933 199.341 199.072C199.97 199.243 200.482 199.413 200.877 199.584C201.272 199.744 201.608 199.989 201.885 200.32C202.173 200.651 202.322 201.083 202.333 201.616C202.333 202.096 202.2 202.528 201.933 202.912C201.666 203.296 201.288 203.6 200.797 203.824C200.317 204.037 199.762 204.144 199.133 204.144ZM203.844 199.6C203.844 198.693 204.026 197.904 204.388 197.232C204.751 196.549 205.252 196.021 205.892 195.648C206.543 195.275 207.284 195.088 208.116 195.088C209.194 195.088 210.079 195.349 210.772 195.872C211.476 196.395 211.94 197.12 212.164 198.048H210.596C210.447 197.515 210.154 197.093 209.716 196.784C209.29 196.475 208.756 196.32 208.116 196.32C207.284 196.32 206.612 196.608 206.1 197.184C205.588 197.749 205.332 198.555 205.332 199.6C205.332 200.656 205.588 201.472 206.1 202.048C206.612 202.624 207.284 202.912 208.116 202.912C208.756 202.912 209.29 202.763 209.716 202.464C210.143 202.165 210.436 201.739 210.596 201.184H212.164C211.93 202.08 211.46 202.8 210.756 203.344C210.052 203.877 209.172 204.144 208.116 204.144C207.284 204.144 206.543 203.957 205.892 203.584C205.252 203.211 204.751 202.683 204.388 202C204.026 201.317 203.844 200.517 203.844 199.6ZM214.859 193.808C214.582 193.808 214.347 193.712 214.155 193.52C213.963 193.328 213.867 193.093 213.867 192.816C213.867 192.539 213.963 192.304 214.155 192.112C214.347 191.92 214.582 191.824 214.859 191.824C215.126 191.824 215.35 191.92 215.531 192.112C215.723 192.304 215.819 192.539 215.819 192.816C215.819 193.093 215.723 193.328 215.531 193.52C215.35 193.712 215.126 193.808 214.859 193.808ZM215.563 195.232V204H214.107V195.232H215.563ZM222.317 195.072C223.383 195.072 224.247 195.397 224.909 196.048C225.57 196.688 225.901 197.616 225.901 198.832V204H224.461V199.04C224.461 198.165 224.242 197.499 223.805 197.04C223.367 196.571 222.77 196.336 222.013 196.336C221.245 196.336 220.631 196.576 220.173 197.056C219.725 197.536 219.501 198.235 219.501 199.152V204H218.045V195.232H219.501V196.48C219.789 196.032 220.178 195.685 220.669 195.44C221.17 195.195 221.719 195.072 222.317 195.072ZM231.895 195.088C232.652 195.088 233.314 195.253 233.879 195.584C234.455 195.915 234.882 196.331 235.159 196.832V195.232H236.631V204.192C236.631 204.992 236.46 205.701 236.119 206.32C235.778 206.949 235.287 207.44 234.647 207.792C234.018 208.144 233.282 208.32 232.439 208.32C231.287 208.32 230.327 208.048 229.559 207.504C228.791 206.96 228.338 206.219 228.199 205.28H229.639C229.799 205.813 230.13 206.24 230.631 206.56C231.132 206.891 231.735 207.056 232.439 207.056C233.239 207.056 233.89 206.805 234.391 206.304C234.903 205.803 235.159 205.099 235.159 204.192V202.352C234.871 202.864 234.444 203.291 233.879 203.632C233.314 203.973 232.652 204.144 231.895 204.144C231.116 204.144 230.407 203.952 229.767 203.568C229.138 203.184 228.642 202.645 228.279 201.952C227.916 201.259 227.735 200.469 227.735 199.584C227.735 198.688 227.916 197.904 228.279 197.232C228.642 196.549 229.138 196.021 229.767 195.648C230.407 195.275 231.116 195.088 231.895 195.088ZM235.159 199.6C235.159 198.939 235.026 198.363 234.759 197.872C234.492 197.381 234.13 197.008 233.671 196.752C233.223 196.485 232.727 196.352 232.183 196.352C231.639 196.352 231.143 196.48 230.695 196.736C230.247 196.992 229.89 197.365 229.623 197.856C229.356 198.347 229.223 198.923 229.223 199.584C229.223 200.256 229.356 200.843 229.623 201.344C229.89 201.835 230.247 202.213 230.695 202.48C231.143 202.736 231.639 202.864 232.183 202.864C232.727 202.864 233.223 202.736 233.671 202.48C234.13 202.213 234.492 201.835 234.759 201.344C235.026 200.843 235.159 200.261 235.159 199.6ZM251.357 199.28C251.357 199.557 251.341 199.851 251.309 200.16H244.301C244.354 201.024 244.648 201.701 245.181 202.192C245.725 202.672 246.381 202.912 247.149 202.912C247.778 202.912 248.301 202.768 248.717 202.48C249.144 202.181 249.442 201.787 249.613 201.296H251.181C250.946 202.139 250.477 202.827 249.773 203.36C249.069 203.883 248.194 204.144 247.149 204.144C246.317 204.144 245.57 203.957 244.909 203.584C244.258 203.211 243.746 202.683 243.373 202C243 201.307 242.813 200.507 242.813 199.6C242.813 198.693 242.994 197.899 243.357 197.216C243.72 196.533 244.226 196.011 244.877 195.648C245.538 195.275 246.296 195.088 247.149 195.088C247.981 195.088 248.717 195.269 249.357 195.632C249.997 195.995 250.488 196.496 250.829 197.136C251.181 197.765 251.357 198.48 251.357 199.28ZM249.853 198.976C249.853 198.421 249.73 197.947 249.485 197.552C249.24 197.147 248.904 196.843 248.477 196.64C248.061 196.427 247.597 196.32 247.085 196.32C246.349 196.32 245.72 196.555 245.197 197.024C244.685 197.493 244.392 198.144 244.317 198.976H249.853ZM254.735 192.16V204H253.279V192.16H254.735ZM257.968 193.808C257.691 193.808 257.456 193.712 257.264 193.52C257.072 193.328 256.976 193.093 256.976 192.816C256.976 192.539 257.072 192.304 257.264 192.112C257.456 191.92 257.691 191.824 257.968 191.824C258.235 191.824 258.459 191.92 258.64 192.112C258.832 192.304 258.928 192.539 258.928 192.816C258.928 193.093 258.832 193.328 258.64 193.52C258.459 193.712 258.235 193.808 257.968 193.808ZM258.672 195.232V204H257.216V195.232H258.672ZM262.93 196.432V201.6C262.93 202.027 263.021 202.331 263.202 202.512C263.383 202.683 263.698 202.768 264.146 202.768H265.218V204H263.906C263.095 204 262.487 203.813 262.082 203.44C261.677 203.067 261.474 202.453 261.474 201.6V196.432H260.338V195.232H261.474V193.024H262.93V195.232H265.218V196.432H262.93ZM125.328 219.232V228H123.872V226.704C123.595 227.152 123.206 227.504 122.704 227.76C122.214 228.005 121.67 228.128 121.072 228.128C120.39 228.128 119.776 227.989 119.232 227.712C118.688 227.424 118.256 226.997 117.936 226.432C117.627 225.867 117.472 225.179 117.472 224.368V219.232H118.912V224.176C118.912 225.04 119.131 225.707 119.568 226.176C120.006 226.635 120.603 226.864 121.36 226.864C122.139 226.864 122.752 226.624 123.2 226.144C123.648 225.664 123.872 224.965 123.872 224.048V219.232H125.328ZM129.563 220.432V225.6C129.563 226.027 129.653 226.331 129.835 226.512C130.016 226.683 130.331 226.768 130.779 226.768H131.851V228H130.539C129.728 228 129.12 227.813 128.715 227.44C128.309 227.067 128.107 226.453 128.107 225.6V220.432H126.971V219.232H128.107V217.024H129.563V219.232H131.851V220.432H129.563ZM137.336 223.584C137.336 222.688 137.518 221.904 137.88 221.232C138.243 220.549 138.739 220.021 139.368 219.648C140.008 219.275 140.718 219.088 141.496 219.088C142.264 219.088 142.931 219.253 143.496 219.584C144.062 219.915 144.483 220.331 144.76 220.832V219.232H146.232V228H144.76V226.368C144.472 226.88 144.04 227.307 143.464 227.648C142.899 227.979 142.238 228.144 141.48 228.144C140.702 228.144 139.998 227.952 139.368 227.568C138.739 227.184 138.243 226.645 137.88 225.952C137.518 225.259 137.336 224.469 137.336 223.584ZM144.76 223.6C144.76 222.939 144.627 222.363 144.36 221.872C144.094 221.381 143.731 221.008 143.272 220.752C142.824 220.485 142.328 220.352 141.784 220.352C141.24 220.352 140.744 220.48 140.296 220.736C139.848 220.992 139.491 221.365 139.224 221.856C138.958 222.347 138.824 222.923 138.824 223.584C138.824 224.256 138.958 224.843 139.224 225.344C139.491 225.835 139.848 226.213 140.296 226.48C140.744 226.736 141.24 226.864 141.784 226.864C142.328 226.864 142.824 226.736 143.272 226.48C143.731 226.213 144.094 225.835 144.36 225.344C144.627 224.843 144.76 224.261 144.76 223.6ZM150.149 216.16V228H148.693V216.16H150.149ZM153.382 217.808C153.105 217.808 152.87 217.712 152.678 217.52C152.486 217.328 152.39 217.093 152.39 216.816C152.39 216.539 152.486 216.304 152.678 216.112C152.87 215.92 153.105 215.824 153.382 215.824C153.649 215.824 153.873 215.92 154.054 216.112C154.246 216.304 154.342 216.539 154.342 216.816C154.342 217.093 154.246 217.328 154.054 217.52C153.873 217.712 153.649 217.808 153.382 217.808ZM154.086 219.232V228H152.63V219.232H154.086ZM156.024 223.584C156.024 222.688 156.205 221.904 156.568 221.232C156.931 220.549 157.427 220.021 158.056 219.648C158.696 219.275 159.411 219.088 160.2 219.088C160.957 219.088 161.619 219.259 162.184 219.6C162.76 219.931 163.181 220.341 163.448 220.832V219.232H164.92V232.16H163.448V226.384C163.171 226.875 162.744 227.291 162.168 227.632C161.592 227.973 160.92 228.144 160.152 228.144C159.384 228.144 158.685 227.952 158.056 227.568C157.427 227.184 156.931 226.645 156.568 225.952C156.205 225.259 156.024 224.469 156.024 223.584ZM163.448 223.6C163.448 222.939 163.315 222.363 163.048 221.872C162.781 221.381 162.419 221.008 161.96 220.752C161.512 220.485 161.016 220.352 160.472 220.352C159.928 220.352 159.432 220.48 158.984 220.736C158.536 220.992 158.179 221.365 157.912 221.856C157.645 222.347 157.512 222.923 157.512 223.584C157.512 224.256 157.645 224.843 157.912 225.344C158.179 225.835 158.536 226.213 158.984 226.48C159.432 226.736 159.928 226.864 160.472 226.864C161.016 226.864 161.512 226.736 161.96 226.48C162.419 226.213 162.781 225.835 163.048 225.344C163.315 224.843 163.448 224.261 163.448 223.6ZM175.156 219.232V228H173.7V226.704C173.423 227.152 173.034 227.504 172.532 227.76C172.042 228.005 171.498 228.128 170.9 228.128C170.218 228.128 169.604 227.989 169.06 227.712C168.516 227.424 168.084 226.997 167.764 226.432C167.455 225.867 167.3 225.179 167.3 224.368V219.232H168.74V224.176C168.74 225.04 168.959 225.707 169.396 226.176C169.834 226.635 170.431 226.864 171.188 226.864C171.967 226.864 172.58 226.624 173.028 226.144C173.476 225.664 173.7 224.965 173.7 224.048V219.232H175.156ZM177.071 223.584C177.071 222.688 177.252 221.904 177.615 221.232C177.977 220.549 178.473 220.021 179.103 219.648C179.743 219.275 180.452 219.088 181.231 219.088C181.999 219.088 182.665 219.253 183.231 219.584C183.796 219.915 184.217 220.331 184.495 220.832V219.232H185.967V228H184.495V226.368C184.207 226.88 183.775 227.307 183.199 227.648C182.633 227.979 181.972 228.144 181.215 228.144C180.436 228.144 179.732 227.952 179.103 227.568C178.473 227.184 177.977 226.645 177.615 225.952C177.252 225.259 177.071 224.469 177.071 223.584ZM184.495 223.6C184.495 222.939 184.361 222.363 184.095 221.872C183.828 221.381 183.465 221.008 183.007 220.752C182.559 220.485 182.063 220.352 181.519 220.352C180.975 220.352 180.479 220.48 180.031 220.736C179.583 220.992 179.225 221.365 178.959 221.856C178.692 222.347 178.559 222.923 178.559 223.584C178.559 224.256 178.692 224.843 178.959 225.344C179.225 225.835 179.583 226.213 180.031 226.48C180.479 226.736 180.975 226.864 181.519 226.864C182.063 226.864 182.559 226.736 183.007 226.48C183.465 226.213 183.828 225.835 184.095 225.344C184.361 224.843 184.495 224.261 184.495 223.6ZM198.971 219.072C199.654 219.072 200.262 219.216 200.795 219.504C201.329 219.781 201.75 220.203 202.059 220.768C202.369 221.333 202.523 222.021 202.523 222.832V228H201.083V223.04C201.083 222.165 200.865 221.499 200.427 221.04C200.001 220.571 199.419 220.336 198.683 220.336C197.926 220.336 197.323 220.581 196.875 221.072C196.427 221.552 196.203 222.251 196.203 223.168V228H194.763V223.04C194.763 222.165 194.545 221.499 194.107 221.04C193.681 220.571 193.099 220.336 192.363 220.336C191.606 220.336 191.003 220.581 190.555 221.072C190.107 221.552 189.883 222.251 189.883 223.168V228H188.427V219.232H189.883V220.496C190.171 220.037 190.555 219.685 191.035 219.44C191.526 219.195 192.065 219.072 192.651 219.072C193.387 219.072 194.038 219.237 194.603 219.568C195.169 219.899 195.59 220.384 195.867 221.024C196.113 220.405 196.518 219.925 197.083 219.584C197.649 219.243 198.278 219.072 198.971 219.072Z" fill="white"/>
<g clip-path="url(#clip0)">
<path d="M179.779 81.4962C178.109 84.8814 175.846 88.2537 173.532 91.2819C171.336 94.1367 168.989 96.8712 166.5 99.4738C164.011 96.8713 161.664 94.1367 159.468 91.2819C157.154 88.2537 154.891 84.8814 153.221 81.4962C151.532 78.0761 150.562 74.8726 150.562 72.125C150.562 67.8981 152.242 63.8443 155.23 60.8555C158.219 57.8666 162.273 56.1875 166.5 56.1875C170.727 56.1875 174.781 57.8666 177.77 60.8555C180.758 63.8443 182.438 67.8981 182.438 72.125C182.438 74.8726 181.465 78.0761 179.779 81.4962ZM166.5 104C166.5 104 185.625 85.8759 185.625 72.125C185.625 67.0527 183.61 62.1882 180.023 58.6016C176.437 55.0149 171.572 53 166.5 53C161.428 53 156.563 55.0149 152.977 58.6016C149.39 62.1882 147.375 67.0527 147.375 72.125C147.375 85.8759 166.5 104 166.5 104Z" fill="white"/>
<path d="M166.5 78.5C164.809 78.5 163.188 77.8284 161.992 76.6328C160.797 75.4373 160.125 73.8158 160.125 72.125C160.125 70.4342 160.797 68.8127 161.992 67.6172C163.188 66.4216 164.809 65.75 166.5 65.75C168.191 65.75 169.812 66.4216 171.008 67.6172C172.203 68.8127 172.875 70.4342 172.875 72.125C172.875 73.8158 172.203 75.4373 171.008 76.6328C169.812 77.8284 168.191 78.5 166.5 78.5ZM166.5 81.6875C169.036 81.6875 171.468 80.68 173.262 78.8867C175.055 77.0934 176.062 74.6611 176.062 72.125C176.062 69.5889 175.055 67.1566 173.262 65.3633C171.468 63.57 169.036 62.5625 166.5 62.5625C163.964 62.5625 161.532 63.57 159.738 65.3633C157.945 67.1566 156.938 69.5889 156.938 72.125C156.938 74.6611 157.945 77.0934 159.738 78.8867C161.532 80.68 163.964 81.6875 166.5 81.6875Z" fill="white"/>
</g>
<defs>
<linearGradient id="paint0_linear" x1="323.333" y1="3.81146e-06" x2="-40.3271" y2="208.745" gradientUnits="userSpaceOnUse">
<stop stop-color="#5FFBF1"/>
<stop offset="0.401042" stop-color="#86A8E7"/>
<stop offset="1" stop-color="#D16BA5"/>
</linearGradient>
<clipPath id="clip0">
<rect width="51" height="51" fill="white" transform="translate(141 53)"/>
</clipPath>
</defs>
</svg>
